<?xml version="1.0" encoding="utf-8"?>
<!-- Generator: Adobe Illustrator 25.2.0, SVG Export Plug-In . SVG Version: 6.00 Build 0)  -->
<svg version="1.1" id="Layer_1" xmlns="http://www.w3.org/2000/svg" xmlns:xlink="http://www.w3.org/1999/xlink" x="0px" y="0px"
	 viewBox="0 0 1920 1080" style="enable-background:new 0 0 1920 1080;" xml:space="preserve">
<style type="text/css">
	.st0{fill:#EADE00;}
</style>
<g>
	<polygon class="st0" points="872.4,572.8 865.1,573.9 861.9,580.5 858.6,573.9 851.4,572.8 856.6,567.7 855.4,560.4 861.9,563.9 
		868.4,560.5 867.2,567.7 	"/>
</g>
<g>
	<polygon class="st0" points="1268.4,647.8 1261.1,648.9 1257.9,655.5 1254.6,648.9 1247.4,647.8 1252.6,642.7 1251.4,635.4 
		1257.9,638.9 1264.4,635.5 1263.2,642.7 	"/>
</g>
<g>
	<polygon class="st0" points="1165.4,829.8 1158.1,830.9 1154.9,837.5 1151.6,830.9 1144.4,829.8 1149.6,824.7 1148.4,817.4 
		1154.9,820.9 1161.4,817.5 1160.2,824.7 	"/>
</g>
<g>
	<polygon class="st0" points="1384.4,532.8 1377.1,533.9 1373.9,540.5 1370.6,533.9 1363.4,532.8 1368.6,527.7 1367.4,520.4 
		1373.9,523.9 1380.4,520.5 1379.2,527.7 	"/>
</g>
<g>
	<polygon class="st0" points="1467.4,773.8 1460.1,774.9 1456.9,781.5 1453.6,774.9 1446.4,773.8 1451.6,768.7 1450.4,761.4 
		1456.9,764.9 1463.4,761.5 1462.2,768.7 	"/>
</g>
<g>
	<polygon class="st0" points="1343.4,811.8 1336.1,812.9 1332.9,819.5 1329.6,812.9 1322.4,811.8 1327.6,806.7 1326.4,799.4 
		1332.9,802.9 1339.4,799.5 1338.2,806.7 	"/>
</g>
<g>
	<polygon class="st0" points="484.4,872.8 477.1,873.9 473.9,880.5 470.6,873.9 463.4,872.8 468.6,867.7 467.4,860.4 473.9,863.9 
		480.4,860.5 479.2,867.7 	"/>
</g>
<g>
	<polygon class="st0" points="202.4,1025.8 195.1,1026.9 191.9,1033.5 188.6,1026.9 181.4,1025.8 186.6,1020.7 185.4,1013.4 
		191.9,1016.9 198.4,1013.5 197.2,1020.7 	"/>
</g>
<g>
	<polygon class="st0" points="62.4,935.8 55.1,936.9 51.9,943.5 48.6,936.9 41.4,935.8 46.6,930.7 45.4,923.4 51.9,926.9 
		58.4,923.5 57.2,930.7 	"/>
</g>
<g>
	<polygon class="st0" points="290.4,862.8 283.1,863.9 279.9,870.5 276.6,863.9 269.4,862.8 274.6,857.7 273.4,850.4 279.9,853.9 
		286.4,850.5 285.2,857.7 	"/>
</g>
<g>
	<polygon class="st0" points="124.4,739.8 117.1,740.9 113.9,747.5 110.6,740.9 103.4,739.8 108.6,734.7 107.4,727.4 113.9,730.9 
		120.4,727.5 119.2,734.7 	"/>
</g>
<g>
	<polygon class="st0" points="484.4,1045.8 477.1,1046.9 473.9,1053.5 470.6,1046.9 463.4,1045.8 468.6,1040.7 467.4,1033.4 
		473.9,1036.9 480.4,1033.5 479.2,1040.7 	"/>
</g>
<g>
	<polygon class="st0" points="648.4,24.8 641.1,25.9 637.9,32.5 634.6,25.9 627.4,24.8 632.6,19.7 631.4,12.4 637.9,15.9 
		644.4,12.5 643.2,19.7 	"/>
</g>
<g>
	<polygon class="st0" points="677.4,424.8 670.1,425.9 666.9,432.5 663.6,425.9 656.4,424.8 661.6,419.7 660.4,412.4 666.9,415.9 
		673.4,412.5 672.2,419.7 	"/>
</g>
<g>
	<polygon class="st0" points="405.4,275.8 398.1,276.9 394.9,283.5 391.6,276.9 384.4,275.8 389.6,270.7 388.4,263.4 394.9,266.9 
		401.4,263.5 400.2,270.7 	"/>
</g>
<g>
	<polygon class="st0" points="725.4,152.8 718.1,153.9 714.9,160.5 711.6,153.9 704.4,152.8 709.6,147.7 708.4,140.4 714.9,143.9 
		721.4,140.5 720.2,147.7 	"/>
</g>
<g>
	<polygon class="st0" points="568.4,230.8 561.1,231.9 557.9,238.5 554.6,231.9 547.4,230.8 552.6,225.7 551.4,218.4 557.9,221.9 
		564.4,218.5 563.2,225.7 	"/>
</g>
<g>
	<polygon class="st0" points="883.4,295.8 876.1,296.9 872.9,303.5 869.6,296.9 862.4,295.8 867.6,290.7 866.4,283.4 872.9,286.9 
		879.4,283.5 878.2,290.7 	"/>
</g>
<g>
	<polygon class="st0" points="85.4,14.8 78.1,15.9 74.9,22.5 71.6,15.9 64.4,14.8 69.6,9.7 68.4,2.4 74.9,5.9 81.4,2.5 80.2,9.7 	
		"/>
</g>
<g>
	<polygon class="st0" points="156.9,162.7 142.7,164.8 136.4,177.6 130.1,164.8 115.9,162.7 126.2,152.7 123.8,138.6 136.4,145.3 
		149.1,138.6 146.7,152.7 	"/>
</g>
<g>
	<polygon class="st0" points="177.9,397.7 163.7,399.8 157.4,412.6 151.1,399.8 136.9,397.7 147.2,387.7 144.8,373.6 157.4,380.3 
		170.1,373.6 167.7,387.7 	"/>
</g>
<g>
	<polygon class="st0" points="341.9,761.7 327.7,763.8 321.4,776.6 315.1,763.8 300.9,761.7 311.2,751.7 308.8,737.6 321.4,744.3 
		334.1,737.6 331.7,751.7 	"/>
</g>
<g>
	<polygon class="st0" points="609.9,937.7 595.7,939.8 589.4,952.6 583.1,939.8 568.9,937.7 579.2,927.7 576.8,913.6 589.4,920.3 
		602.1,913.6 599.7,927.7 	"/>
</g>
<g>
	<polygon class="st0" points="745.9,584.7 731.7,586.8 725.4,599.6 719.1,586.8 704.9,584.7 715.2,574.7 712.8,560.6 725.4,567.3 
		738.1,560.6 735.7,574.7 	"/>
</g>
<g>
	<polygon class="st0" points="880.3,477 850.4,481.3 837,508.4 823.6,481.3 793.7,476.9 815.4,455.8 810.3,426 837,440.1 
		863.8,426.1 858.7,455.9 	"/>
</g>
<g>
	<polygon class="st0" points="1046.3,66 1016.4,70.3 1003,97.4 989.6,70.3 959.7,65.9 981.4,44.8 976.3,15 1003,29.1 1029.8,15.1 
		1024.7,44.9 	"/>
</g>
<g>
	<polygon class="st0" points="1601.3,313 1571.4,317.3 1558,344.4 1544.6,317.3 1514.7,312.9 1536.4,291.8 1531.3,262 1558,276.1 
		1584.8,262.1 1579.7,291.9 	"/>
</g>
<g>
	<polygon class="st0" points="1345.3,985 1315.4,989.3 1302,1016.4 1288.6,989.3 1258.7,984.9 1280.4,963.8 1275.3,934 1302,948.1 
		1328.8,934.1 1323.7,963.9 	"/>
</g>
<g>
	<polygon class="st0" points="506.3,747 476.4,751.3 463,778.4 449.6,751.3 419.7,746.9 441.4,725.8 436.3,696 463,710.1 
		489.8,696.1 484.7,725.9 	"/>
</g>
<g>
	<polygon class="st0" points="289.3,253 259.4,257.3 246,284.4 232.6,257.3 202.7,252.9 224.4,231.8 219.3,202 246,216.1 
		272.8,202.1 267.7,231.9 	"/>
</g>
<g>
	<polygon class="st0" points="1541.9,446.7 1527.7,448.8 1521.4,461.6 1515.1,448.8 1500.9,446.7 1511.2,436.7 1508.8,422.6 
		1521.4,429.3 1534.1,422.6 1531.7,436.7 	"/>
</g>
<g>
	<polygon class="st0" points="1841.9,182.7 1827.7,184.8 1821.4,197.6 1815.1,184.8 1800.9,182.7 1811.2,172.7 1808.8,158.6 
		1821.4,165.3 1834.1,158.6 1831.7,172.7 	"/>
</g>
<g>
	<polygon class="st0" points="1541.9,937.7 1527.7,939.8 1521.4,952.6 1515.1,939.8 1500.9,937.7 1511.2,927.7 1508.8,913.6 
		1521.4,920.3 1534.1,913.6 1531.7,927.7 	"/>
</g>
<g>
	<polygon class="st0" points="946.9,1037.7 932.7,1039.8 926.4,1052.6 920.1,1039.8 905.9,1037.7 916.2,1027.7 913.8,1013.6 
		926.4,1020.3 939.1,1013.6 936.7,1027.7 	"/>
</g>
<g>
	<polygon class="st0" points="1071.9,700.7 1057.7,702.8 1051.4,715.6 1045.1,702.8 1030.9,700.7 1041.2,690.7 1038.8,676.6 
		1051.4,683.3 1064.1,676.6 1061.7,690.7 	"/>
</g>
<g>
	<polygon class="st0" points="1301.9,222.7 1287.7,224.8 1281.4,237.6 1275.1,224.8 1260.9,222.7 1271.2,212.7 1268.8,198.6 
		1281.4,205.3 1294.1,198.6 1291.7,212.7 	"/>
</g>
<g>
	<polygon class="st0" points="745.9,267.7 731.7,269.8 725.4,282.6 719.1,269.8 704.9,267.7 715.2,257.7 712.8,243.6 725.4,250.3 
		738.1,243.6 735.7,257.7 	"/>
</g>
<g>
	<polygon class="st0" points="504.9,416.7 490.7,418.8 484.4,431.6 478.1,418.8 463.9,416.7 474.2,406.7 471.8,392.6 484.4,399.3 
		497.1,392.6 494.7,406.7 	"/>
</g>
<g>
	<polygon class="st0" points="133.9,979.7 119.7,981.8 113.4,994.6 107.1,981.8 92.9,979.7 103.2,969.7 100.8,955.6 113.4,962.3 
		126.1,955.6 123.7,969.7 	"/>
</g>
<g>
	<polygon class="st0" points="41.4,340.8 34.1,341.9 30.9,348.5 27.6,341.9 20.4,340.8 25.6,335.7 24.4,328.4 30.9,331.9 
		37.4,328.5 36.2,335.7 	"/>
</g>
<g>
	<polygon class="st0" points="394.4,78.8 387.1,79.9 383.9,86.5 380.6,79.9 373.4,78.8 378.6,73.7 377.4,66.4 383.9,69.9 
		390.4,66.5 389.2,73.7 	"/>
</g>
<g>
	<polygon class="st0" points="321.4,424.8 314.1,425.9 310.9,432.5 307.6,425.9 300.4,424.8 305.6,419.7 304.4,412.4 310.9,415.9 
		317.4,412.5 316.2,419.7 	"/>
</g>
<g>
	<polygon class="st0" points="96.4,572.8 89.1,573.9 85.9,580.5 82.6,573.9 75.4,572.8 80.6,567.7 79.4,560.4 85.9,563.9 
		92.4,560.5 91.2,567.7 	"/>
</g>
<g>
	<polygon class="st0" points="1681.4,542.8 1674.1,543.9 1670.9,550.5 1667.6,543.9 1660.4,542.8 1665.6,537.7 1664.4,530.4 
		1670.9,533.9 1677.4,530.5 1676.2,537.7 	"/>
</g>
<g>
	<polygon class="st0" points="1821.4,997.8 1814.1,998.9 1810.9,1005.5 1807.6,998.9 1800.4,997.8 1805.6,992.7 1804.4,985.4 
		1810.9,988.9 1817.4,985.5 1816.2,992.7 	"/>
</g>
<g>
	<polygon class="st0" points="1423.4,997.8 1416.1,998.9 1412.9,1005.5 1409.6,998.9 1402.4,997.8 1407.6,992.7 1406.4,985.4 
		1412.9,988.9 1419.4,985.5 1418.2,992.7 	"/>
</g>
<g>
	<polygon class="st0" points="1521.4,811.8 1514.1,812.9 1510.9,819.5 1507.6,812.9 1500.4,811.8 1505.6,806.7 1504.4,799.4 
		1510.9,802.9 1517.4,799.5 1516.2,806.7 	"/>
</g>
<g>
	<polygon class="st0" points="1735.4,773.8 1728.1,774.9 1724.9,781.5 1721.6,774.9 1714.4,773.8 1719.6,768.7 1718.4,761.4 
		1724.9,764.9 1731.4,761.5 1730.2,768.7 	"/>
</g>
<g>
	<polygon class="st0" points="1579.4,1025.8 1572.1,1026.9 1568.9,1033.5 1565.6,1026.9 1558.4,1025.8 1563.6,1020.7 1562.4,1013.4 
		1568.9,1016.9 1575.4,1013.5 1574.2,1020.7 	"/>
</g>
<g>
	<polygon class="st0" points="1714.4,39.8 1707.1,40.9 1703.9,47.5 1700.6,40.9 1693.4,39.8 1698.6,34.7 1697.4,27.4 1703.9,30.9 
		1710.4,27.5 1709.2,34.7 	"/>
</g>
<g>
	<polygon class="st0" points="1832.4,657.8 1825.1,658.9 1821.9,665.5 1818.6,658.9 1811.4,657.8 1816.6,652.7 1815.4,645.4 
		1821.9,648.9 1828.4,645.5 1827.2,652.7 	"/>
</g>
<g>
	<polygon class="st0" points="1746.4,434.8 1739.1,435.9 1735.9,442.5 1732.6,435.9 1725.4,434.8 1730.6,429.7 1729.4,422.4 
		1735.9,425.9 1742.4,422.5 1741.2,429.7 	"/>
</g>
<g>
	<polygon class="st0" points="1746.4,210.8 1739.1,211.9 1735.9,218.5 1732.6,211.9 1725.4,210.8 1730.6,205.7 1729.4,198.4 
		1735.9,201.9 1742.4,198.5 1741.2,205.7 	"/>
</g>
<g>
	<polygon class="st0" points="1897.4,58.8 1890.1,59.9 1886.9,66.5 1883.6,59.9 1876.4,58.8 1881.6,53.7 1880.4,46.4 1886.9,49.9 
		1893.4,46.5 1892.2,53.7 	"/>
</g>
<g>
	<polygon class="st0" points="1478.4,93.8 1471.1,94.9 1467.9,101.5 1464.6,94.9 1457.4,93.8 1462.6,88.7 1461.4,81.4 1467.9,84.9 
		1474.4,81.5 1473.2,88.7 	"/>
</g>
<g>
	<polygon class="st0" points="1104.4,39.8 1097.1,40.9 1093.9,47.5 1090.6,40.9 1083.4,39.8 1088.6,34.7 1087.4,27.4 1093.9,30.9 
		1100.4,27.5 1099.2,34.7 	"/>
</g>
<g>
	<polygon class="st0" points="1114.4,532.8 1107.1,533.9 1103.9,540.5 1100.6,533.9 1093.4,532.8 1098.6,527.7 1097.4,520.4 
		1103.9,523.9 1110.4,520.5 1109.2,527.7 	"/>
</g>
<g>
	<polygon class="st0" points="926.4,103.8 919.1,104.9 915.9,111.5 912.6,104.9 905.4,103.8 910.6,98.7 909.4,91.4 915.9,94.9 
		922.4,91.5 921.2,98.7 	"/>
</g>
<g>
	<polygon class="st0" points="1083.4,340.8 1076.1,341.9 1072.9,348.5 1069.6,341.9 1062.4,340.8 1067.6,335.7 1066.4,328.4 
		1072.9,331.9 1079.4,328.5 1078.2,335.7 	"/>
</g>
<g>
	<polygon class="st0" points="1467.4,265.8 1460.1,266.9 1456.9,273.5 1453.6,266.9 1446.4,265.8 1451.6,260.7 1450.4,253.4 
		1456.9,256.9 1463.4,253.5 1462.2,260.7 	"/>
</g>
<g>
	<polygon class="st0" points="1236.4,340.8 1229.1,341.9 1225.9,348.5 1222.6,341.9 1215.4,340.8 1220.6,335.7 1219.4,328.4 
		1225.9,331.9 1232.4,328.5 1231.2,335.7 	"/>
</g>
<g>
	<polygon class="st0" points="1072.4,200.8 1065.1,201.9 1061.9,208.5 1058.6,201.9 1051.4,200.8 1056.6,195.7 1055.4,188.4 
		1061.9,191.9 1068.4,188.5 1067.2,195.7 	"/>
</g>
<g>
	<polygon class="st0" points="1236.4,152.8 1229.1,153.9 1225.9,160.5 1222.6,153.9 1215.4,152.8 1220.6,147.7 1219.4,140.4 
		1225.9,143.9 1232.4,140.5 1231.2,147.7 	"/>
</g>
<g>
	<polygon class="st0" points="1302.4,24.8 1295.1,25.9 1291.9,32.5 1288.6,25.9 1281.4,24.8 1286.6,19.7 1285.4,12.4 1291.9,15.9 
		1298.4,12.5 1297.2,19.7 	"/>
</g>
<g>
	<polygon class="st0" points="557.4,562.8 550.1,563.9 546.9,570.5 543.6,563.9 536.4,562.8 541.6,557.7 540.4,550.4 546.9,553.9 
		553.4,550.5 552.2,557.7 	"/>
</g>
<g>
	<polygon class="st0" points="780.4,1035.8 773.1,1036.9 769.9,1043.5 766.6,1036.9 759.4,1035.8 764.6,1030.7 763.4,1023.4 
		769.9,1026.9 776.4,1023.5 775.2,1030.7 	"/>
</g>
<g>
	<polygon class="st0" points="332.4,647.8 325.1,648.9 321.9,655.5 318.6,648.9 311.4,647.8 316.6,642.7 315.4,635.4 321.9,638.9 
		328.4,635.5 327.2,642.7 	"/>
</g>
<g>
	<polygon class="st0" points="883.4,773.8 876.1,774.9 872.9,781.5 869.6,774.9 862.4,773.8 867.6,768.7 866.4,761.4 872.9,764.9 
		879.4,761.5 878.2,768.7 	"/>
</g>
<g>
	<polygon class="st0" points="1125.4,987.8 1118.1,988.9 1114.9,995.5 1111.6,988.9 1104.4,987.8 1109.6,982.7 1108.4,975.4 
		1114.9,978.9 1121.4,975.5 1120.2,982.7 	"/>
</g>
<g>
	<polygon class="st0" points="648.4,749.8 641.1,750.9 637.9,757.5 634.6,750.9 627.4,749.8 632.6,744.7 631.4,737.4 637.9,740.9 
		644.4,737.5 643.2,744.7 	"/>
</g>
</svg>
